<svg xmlns="http://www.w3.org/2000/svg" xmlns:xlink="http://www.w3.org/1999/xlink" width="1080" zoomAndPan="magnify" viewBox="0 0 810 809.999993" height="1080" preserveAspectRatio="xMidYMid meet" version="1.0"><rect x="-81" width="972" fill="#ffffff" y="-80.999999" height="971.999992" fill-opacity="1"/><path stroke-linecap="butt" transform="matrix(24.545453, 0, 0, 24.545453, 0.0000035, 0.00002)" fill-opacity="1" fill="#ffffff" fill-rule="nonzero" stroke-linejoin="miter" d="M 1.999957 2.499985 L 9.000044 2.499985 M 9.999942 2.499985 L 12.000058 2.499985 M 12.999957 2.499985 L 15.000073 2.499985 M 17.00003 2.499985 L 18.999986 2.499985 M 20.000044 2.499985 L 23.000059 2.499985 M 23.999957 2.499985 L 31.000045 2.499985 M 1.999957 3.500043 L 3.000014 3.500043 M 7.999986 3.500043 L 9.000044 3.500043 M 9.999942 3.500043 L 11 3.500043 M 12.000058 3.500043 L 12.999957 3.500043 M 15.999972 3.500043 L 17.999928 3.500043 M 23.999957 3.500043 L 25.000015 3.500043 M 29.999987 3.500043 L 31.000045 3.500043 M 1.999957 4.499942 L 3.000014 4.499942 M 4.000072 4.499942 L 6.999928 4.499942 M 7.999986 4.499942 L 9.000044 4.499942 M 12.999957 4.499942 L 14.000015 4.499942 M 15.000073 4.499942 L 17.999928 4.499942 M 22.000001 4.499942 L 23.000059 4.499942 M 23.999957 4.499942 L 25.000015 4.499942 M 26.000073 4.499942 L 28.999929 4.499942 M 29.999987 4.499942 L 31.000045 4.499942 M 1.999957 5.499999 L 3.000014 5.499999 M 4.000072 5.499999 L 6.999928 5.499999 M 7.999986 5.499999 L 9.000044 5.499999 M 9.999942 5.499999 L 11 5.499999 M 12.000058 5.499999 L 12.999957 5.499999 M 17.999928 5.499999 L 20.000044 5.499999 M 20.999943 5.499999 L 22.000001 5.499999 M 23.999957 5.499999 L 25.000015 5.499999 M 26.000073 5.499999 L 28.999929 5.499999 M 29.999987 5.499999 L 31.000045 5.499999 M 1.999957 6.500057 L 3.000014 6.500057 M 4.000072 6.500057 L 6.999928 6.500057 M 7.999986 6.500057 L 9.000044 6.500057 M 12.999957 6.500057 L 14.000015 6.500057 M 15.000073 6.500057 L 15.999972 6.500057 M 18.999986 6.500057 L 20.000044 6.500057 M 20.999943 6.500057 L 23.000059 6.500057 M 23.999957 6.500057 L 25.000015 6.500057 M 26.000073 6.500057 L 28.999929 6.500057 M 29.999987 6.500057 L 31.000045 6.500057 M 1.999957 7.499956 L 3.000014 7.499956 M 7.999986 7.499956 L 9.000044 7.499956 M 11 7.499956 L 12.000058 7.499956 M 15.999972 7.499956 L 17.00003 7.499956 M 20.000044 7.499956 L 22.000001 7.499956 M 23.999957 7.499956 L 25.000015 7.499956 M 29.999987 7.499956 L 31.000045 7.499956 M 1.999957 8.500014 L 9.000044 8.500014 M 9.999942 8.500014 L 11 8.500014 M 12.000058 8.500014 L 12.999957 8.500014 M 14.000015 8.500014 L 15.000073 8.500014 M 15.999972 8.500014 L 17.00003 8.500014 M 17.999928 8.500014 L 18.999986 8.500014 M 20.000044 8.500014 L 20.999943 8.500014 M 22.000001 8.500014 L 23.000059 8.500014 M 23.999957 8.500014 L 31.000045 8.500014 M 9.999942 9.500072 L 12.999957 9.500072 M 14.000015 9.500072 L 17.00003 9.500072 M 18.999986 9.500072 L 20.999943 9.500072 M 1.999957 10.499971 L 3.000014 10.499971 M 4.000072 10.499971 L 6.000029 10.499971 M 6.999928 10.499971 L 9.999942 10.499971 M 11 10.499971 L 12.999957 10.499971 M 15.000073 10.499971 L 17.00003 10.499971 M 17.999928 10.499971 L 22.000001 10.499971 M 23.999957 10.499971 L 25.000015 10.499971 M 26.999972 10.499971 L 28.00003 10.499971 M 28.999929 10.499971 L 31.000045 10.499971 M 3.000014 11.500029 L 4.000072 11.500029 M 6.000029 11.500029 L 7.999986 11.500029 M 9.000044 11.500029 L 9.999942 11.500029 M 12.000058 11.500029 L 12.999957 11.500029 M 17.00003 11.500029 L 18.999986 11.500029 M 20.999943 11.500029 L 23.000059 11.500029 M 23.999957 11.500029 L 26.999972 11.500029 M 29.999987 11.500029 L 31.000045 11.500029 M 1.999957 12.499927 L 3.000014 12.499927 M 4.000072 12.499927 L 6.000029 12.499927 M 7.999986 12.499927 L 11 12.499927 M 12.999957 12.499927 L 15.000073 12.499927 M 15.999972 12.499927 L 17.999928 12.499927 M 25.000015 12.499927 L 26.999972 12.499927 M 28.00003 12.499927 L 29.999987 12.499927 M 1.999957 13.499985 L 3.000014 13.499985 M 4.999971 13.499985 L 6.999928 13.499985 M 12.000058 13.499985 L 12.999957 13.499985 M 14.000015 13.499985 L 17.999928 13.499985 M 20.999943 13.499985 L 22.000001 13.499985 M 23.999957 13.499985 L 26.999972 13.499985 M 29.999987 13.499985 L 31.000045 13.499985 M 3.000014 14.500043 L 4.000072 14.500043 M 4.999971 14.500043 L 6.000029 14.500043 M 6.999928 14.500043 L 9.000044 14.500043 M 12.999957 14.500043 L 14.000015 14.500043 M 18.999986 14.500043 L 20.000044 14.500043 M 20.999943 14.500043 L 22.000001 14.500043 M 26.999972 14.500043 L 28.999929 14.500043 M 4.000072 15.499942 L 4.999971 15.499942 M 6.000029 15.499942 L 7.999986 15.499942 M 9.000044 15.499942 L 9.999942 15.499942 M 14.000015 15.499942 L 15.999972 15.499942 M 18.999986 15.499942 L 20.000044 15.499942 M 20.999943 15.499942 L 22.000001 15.499942 M 23.999957 15.499942 L 26.000073 15.499942 M 28.00003 15.499942 L 31.000045 15.499942 M 3.000014 16.5 L 4.000072 16.5 M 6.000029 16.5 L 9.000044 16.5 M 14.000015 16.5 L 15.000073 16.5 M 15.999972 16.5 L 17.00003 16.5 M 17.999928 16.5 L 18.999986 16.5 M 20.999943 16.5 L 22.000001 16.5 M 23.000059 16.5 L 23.999957 16.5 M 26.000073 16.5 L 26.999972 16.5 M 28.00003 16.5 L 31.000045 16.5 M 3.000014 17.500058 L 4.000072 17.500058 M 4.999971 17.500058 L 6.000029 17.500058 M 6.999928 17.500058 L 7.999986 17.500058 M 9.000044 17.500058 L 11 17.500058 M 12.000058 17.500058 L 14.000015 17.500058 M 15.000073 17.500058 L 15.999972 17.500058 M 17.00003 17.500058 L 17.999928 17.500058 M 20.999943 17.500058 L 23.999957 17.500058 M 26.000073 17.500058 L 26.999972 17.500058 M 28.999929 17.500058 L 29.999987 17.500058 M 6.999928 18.499957 L 9.999942 18.499957 M 14.000015 18.499957 L 15.000073 18.499957 M 17.999928 18.499957 L 18.999986 18.499957 M 20.000044 18.499957 L 23.999957 18.499957 M 25.000015 18.499957 L 28.00003 18.499957 M 28.999929 18.499957 L 29.999987 18.499957 M 4.999971 19.500014 L 6.999928 19.500014 M 9.000044 19.500014 L 11 19.500014 M 12.999957 19.500014 L 15.999972 19.500014 M 17.00003 19.500014 L 17.999928 19.500014 M 18.999986 19.500014 L 20.000044 19.500014 M 25.000015 19.500014 L 26.000073 19.500014 M 26.999972 19.500014 L 29.999987 19.500014 M 1.999957 20.500072 L 3.000014 20.500072 M 4.000072 20.500072 L 4.999971 20.500072 M 6.000029 20.500072 L 6.999928 20.500072 M 7.999986 20.500072 L 9.000044 20.500072 M 9.999942 20.500072 L 14.000015 20.500072 M 17.00003 20.500072 L 17.999928 20.500072 M 18.999986 20.500072 L 20.000044 20.500072 M 22.000001 20.500072 L 23.000059 20.500072 M 23.999957 20.500072 L 26.999972 20.500072 M 28.00003 20.500072 L 28.999929 20.500072 M 6.000029 21.499971 L 6.999928 21.499971 M 11 21.499971 L 12.000058 21.499971 M 18.999986 21.499971 L 20.000044 21.499971 M 20.999943 21.499971 L 23.999957 21.499971 M 26.000073 21.499971 L 26.999972 21.499971 M 28.00003 21.499971 L 28.999929 21.499971 M 3.000014 22.500029 L 6.999928 22.500029 M 7.999986 22.500029 L 9.000044 22.500029 M 11 22.500029 L 12.999957 22.500029 M 15.000073 22.500029 L 15.999972 22.500029 M 17.00003 22.500029 L 28.999929 22.500029 M 9.999942 23.499928 L 17.00003 23.499928 M 17.999928 23.499928 L 18.999986 23.499928 M 20.000044 23.499928 L 20.999943 23.499928 M 22.000001 23.499928 L 23.000059 23.499928 M 26.000073 23.499928 L 31.000045 23.499928 M 1.999957 24.499986 L 9.000044 24.499986 M 9.999942 24.499986 L 12.000058 24.499986 M 15.000073 24.499986 L 15.999972 24.499986 M 18.999986 24.499986 L 23.000059 24.499986 M 23.999957 24.499986 L 25.000015 24.499986 M 26.000073 24.499986 L 28.00003 24.499986 M 28.999929 24.499986 L 29.999987 24.499986 M 1.999957 25.500044 L 3.000014 25.500044 M 7.999986 25.500044 L 9.000044 25.500044 M 9.999942 25.500044 L 12.000058 25.500044 M 12.999957 25.500044 L 15.000073 25.500044 M 17.999928 25.500044 L 18.999986 25.500044 M 22.000001 25.500044 L 23.000059 25.500044 M 26.000073 25.500044 L 28.00003 25.500044 M 28.999929 25.500044 L 31.000045 25.500044 M 1.999957 26.499942 L 3.000014 26.499942 M 4.000072 26.499942 L 6.999928 26.499942 M 7.999986 26.499942 L 9.000044 26.499942 M 11 26.499942 L 12.999957 26.499942 M 15.999972 26.499942 L 20.000044 26.499942 M 22.000001 26.499942 L 26.999972 26.499942 M 28.00003 26.499942 L 29.999987 26.499942 M 1.999957 27.5 L 3.000014 27.5 M 4.000072 27.5 L 6.999928 27.5 M 7.999986 27.5 L 9.000044 27.5 M 9.999942 27.5 L 12.000058 27.5 M 14.000015 27.5 L 15.000073 27.5 M 15.999972 27.5 L 20.000044 27.5 M 20.999943 27.5 L 23.000059 27.5 M 25.000015 27.5 L 28.00003 27.5 M 29.999987 27.5 L 31.000045 27.5 M 1.999957 28.500058 L 3.000014 28.500058 M 4.000072 28.500058 L 6.999928 28.500058 M 7.999986 28.500058 L 9.000044 28.500058 M 9.999942 28.500058 L 11 28.500058 M 14.000015 28.500058 L 15.999972 28.500058 M 17.999928 28.500058 L 18.999986 28.500058 M 20.999943 28.500058 L 22.000001 28.500058 M 25.000015 28.500058 L 26.000073 28.500058 M 28.00003 28.500058 L 28.999929 28.500058 M 29.999987 28.500058 L 31.000045 28.500058 M 1.999957 29.499957 L 3.000014 29.499957 M 7.999986 29.499957 L 9.000044 29.499957 M 11 29.499957 L 15.000073 29.499957 M 15.999972 29.499957 L 17.00003 29.499957 M 17.999928 29.499957 L 18.999986 29.499957 M 22.000001 29.499957 L 23.000059 29.499957 M 23.999957 29.499957 L 25.000015 29.499957 M 26.000073 29.499957 L 28.00003 29.499957 M 28.999929 29.499957 L 29.999987 29.499957 M 1.999957 30.500015 L 9.000044 30.500015 M 9.999942 30.500015 L 11 30.500015 M 12.000058 30.500015 L 12.999957 30.500015 M 17.00003 30.500015 L 17.999928 30.500015 M 20.999943 30.500015 L 23.000059 30.500015 M 23.999957 30.500015 L 26.000073 30.500015 M 26.999972 30.500015 L 28.00003 30.500015 M 28.999929 30.500015 L 29.999987 30.500015 " stroke="#000000" stroke-width="1" stroke-opacity="1" stroke-miterlimit="4"/></svg>